<?xml version="1.0" encoding="utf-8"?>
<!DOCTYPE svg PUBLIC "-//W3C//DTD SVG 1.1//EN" "http://www.w3.org/Graphics/SVG/1.1/DTD/svg11.dtd">
<svg version="1.1" id="Layer_1" xmlns="http://www.w3.org/2000/svg" xmlns:xlink="http://www.w3.org/1999/xlink" x="0px" y="0px"
	 width="1080px" height="1080px" viewBox="0 0 1080 1080" enable-background="new 0 0 1080 1080" xml:space="preserve">
<title>Adolphus_Hotel_Crest_inverse1x</title>
<path fill="#FFFFFF" d="M1010.555,242.3l-0.623-43.107l-41.745-10.699c-57.073-14.784-119.321-52.171-179.507-88.509
	C703.401,48.553,622.984,0,540,0c-93.8,0-178.068,52.638-259.574,103.682c-55.867,34.82-113.641,70.924-168.38,84.929L70.068,199.31
	l-0.622,43.146c-2.685,191.335,22.137,339.096,78.121,465.03c33.364,75.695,80.23,144.683,138.307,203.59
	c62.48,63.182,140.058,116.325,230.589,158.031l23.576,10.854l23.577-10.854c90.492-41.706,168.107-94.889,230.589-158.07
	c58.077-58.921,104.944-127.922,138.307-203.628C988.495,581.355,1013.278,433.595,1010.555,242.3z M910.608,697.487
	c-32.119,73.115-77.285,139.771-133.288,196.703c-60.458,61.119-135.7,112.824-223.587,153.168l-13.538,6.226l-13.539-6.226
	c-88.042-40.538-163.284-92.049-223.742-153.168c-56.039-56.847-101.258-123.423-133.443-196.47
	c-54.506-122.667-78.666-267.238-76.021-454.954l0.351-24.782l24.004-6.147c58.357-14.939,117.921-52.055,175.345-87.964
	C371.775,74.814,453.086,24.004,540,24.004c76.292,0,153.985,46.919,236.269,96.562c61.704,37.232,125.547,75.709,185.966,91.193
	l23.966,6.147l0.35,24.744c2.685,187.833-21.437,332.287-75.981,454.993L910.608,697.487z"/>
<path fill="#FFFFFF" d="M896.525,691.457c53.649-120.605,77.42-263.464,74.736-449.08V230.2l-11.672-3.035
	c-62.987-16.146-127.997-55.361-190.828-93.372C687.838,85.357,612.013,39.527,540,39.527c-82.439,0-161.884,49.643-238.76,97.651
	c-58.513,36.532-119.166,74.503-180.363,90.143l-11.671,2.996v12.177c-2.606,185.654,21.164,328.357,74.813,449.04
	c31.457,71.384,75.647,136.443,130.409,191.996c58.941,59.797,132.744,110.295,219.035,149.979l6.652,3.073l6.652-3.073
	c86.292-39.761,160.094-90.26,219.308-150.096C820.848,827.875,865.051,762.829,896.525,691.457z M540.895,1020.864l-0.778,0.351
	l-0.778-0.351c-164.022-75.553-276.225-185.148-342.791-335.049c-52.794-118.737-76.176-259.573-73.607-443.126v-1.44l1.4-0.35
	c63.298-16.185,124.885-54.467,184.448-91.816C387.453,99.791,461.723,53.533,540,53.533c67.967,0,142.353,44.857,221.096,92.399
	c63.727,38.477,129.632,78.238,194.525,94.85l1.4,0.351v1.439c2.646,183.514-20.736,324.35-73.53,443.165
	C817.08,835.677,704.956,945.312,540.895,1020.864L540.895,1020.864z"/>
<path fill="#FFFFFF" d="M363.449,601.664c0,3.502,0,6.342,0,9.143c0,2.802-2.996,3.463-5.019,4.63
	c-8.403,4.941-17.041,9.493-25.094,14.939c-7.275,4.941-13.772,10.972-20.814,16.224c-3.256,2.104-6.648,3.987-10.154,5.641
	c-1.74-1.26-2.13-3.692-0.869-5.433c0.241-0.334,0.535-0.628,0.869-0.869c4.5-4.962,6.826-11.52,6.458-18.208
	c-0.271-19.958-0.35-39.916-0.506-59.875c0-5.213-2.45-6.769-6.964-4.24c-10.698,6.03-21.28,12.294-31.901,18.441
	c-4.707,2.723-9.57,5.33-14.161,8.247c-2.542,1.667-4.879,3.626-6.964,5.836c-2.646,3.119-3.759,7.257-3.035,11.282
	c0.931,11.799,3.989,23.332,9.026,34.042c2.952,6.783,7.536,12.73,13.344,17.313c3.541,2.568,7.314,4.863,11.088,7.081
	c1.801,0.799,2.63,2.892,1.868,4.707c-2.725,9.983-1.886,20.604,2.373,30.035c5.427,13.445,17.991,22.666,32.446,23.81
	c7.54,1.123,15.243,0.293,22.37-2.412c8.776-3.073,15.631-10.043,18.558-18.869c0.728-1.859,1.313-3.771,1.751-5.719
	c0.219-1.188-0.126-2.409-0.934-3.307c-1.173-0.476-2.484-0.476-3.657,0c-2.629,0.727-4.486,3.071-4.591,5.797
	c-0.272,2.295-0.389,5.524-3.034,5.563c-2.533-0.256-4.878-1.449-6.575-3.346c-6.108-6.498-5.836-22.954,5.252-29.18
	c8.948-5.057,18.636-4.123,24.744,3.58c1.991,2.568,3.183,5.667,3.423,8.909c0.661,14.239-1.867,27.739-11.127,39.138
	c-5.365,6.132-12.392,10.577-20.23,12.8c-21.67,7.197-41.083,1.518-59.68-10.192c-17.05-11.036-30.631-26.667-39.177-45.091
	c-7.701-16.209-12.87-33.502-15.329-51.277c-2.144-15.046-2.963-30.251-2.451-45.44c0.727-21.498,4.661-42.768,11.672-63.104
	c6.051-18.891,15.476-36.527,27.817-52.055c7.936-9.537,16.528-18.507,25.716-26.845c8.445-8.048,17.343-15.608,26.649-22.643
	c13.96-11.007,30.449-18.349,47.97-21.359c10.669-1.838,21.64-0.652,31.669,3.423c8.698,3.648,12.793,13.657,9.145,22.355
	c-0.051,0.122-0.104,0.244-0.158,0.365c-3.869,10.229-15.299,15.385-25.527,11.515c-0.58-0.219-1.149-0.466-1.705-0.738
	c-4.407-1.706-7.856-5.24-9.454-9.688c-1.596-4.668,0.233-6.847,5.135-6.263c1.824,0.449,3.737,0.382,5.524-0.195
	c1.712-0.934,3.891-2.957,3.891-4.629c0.059-2.768-1.996-5.126-4.746-5.447c-6.307-1.116-12.793,0.449-17.896,4.318
	c-8.537,5.374-14.142,14.362-15.212,24.394c-1.087,10.91-1.581,21.872-1.478,32.836c-0.182,36.311-0.182,72.531,0,108.661
	c0.09,6.624,0.779,13.226,2.062,19.725c1.089,5.719,4.785,7.197,10.154,4.941C358.353,604.115,360.649,602.909,363.449,601.664z
	 M249.458,571.552l1.4,0.778c2.213-0.789,4.359-1.752,6.42-2.879c6.186-3.891,12.099-8.365,18.285-12.255
	c8.948-5.642,18.091-11.05,27.233-16.535c2.799-1.402,4.485-4.346,4.279-7.47c0-7.781,0-15.795,0-23.693
	c0-16.884,0.311-33.769,0.233-50.576c0-1.789-1.167-4.668-2.49-5.135c-2.184-0.418-4.445-0.046-6.38,1.05
	c-1.672,1.096-3.123,2.494-4.279,4.124c-13.941,16.344-24.839,35.055-32.175,55.245c-6.025,15.645-10.204,31.939-12.449,48.554
	c-0.216,2.899-0.242,5.811-0.078,8.714V571.552z"/>
<path fill="#FFFFFF" d="M531.052,796.539c-5.541-5.73-9.076-13.102-10.077-21.009c-3.89-20.464-3.579-41.161-3.307-61.82
	c0.182-12.656,0.363-25.313,0.545-37.971c0-4.24,0.233-8.442,0-12.683c0-3.346-1.09-4.28-4.396-4.357
	c-3.307-0.078-6.107-0.233-9.143,0c-1.16,0.305-2.254,0.818-3.229,1.517c0.419,1.015,0.968,1.969,1.635,2.841
	c3.087,2.273,4.13,6.416,2.489,9.882c-1.435,3.977-5.114,6.706-9.337,6.925c-4.679,0.458-9.209-1.792-11.671-5.797
	c-2.622-5.212-2.174-11.441,1.167-16.224c3.604-5.882,10.201-9.249,17.079-8.715c2.601-0.047,5.201,0.097,7.781,0.429
	c4.94,0.622,7.08-0.973,7.119-5.836c0-9.493,0.233-18.986,0-28.439c0-4.863,3.385-6.964,6.342-9.104
	c4.94-3.541,10.388-6.381,15.562-9.454c0.569-0.16,1.159-0.239,1.751-0.233c0.193,0.989,0.193,2.006,0,2.995
	c-2.929,7.427-4.344,15.362-4.163,23.343c-0.428,7.159,0,14.356-0.272,21.554c0,2.763,0.973,4.318,3.891,4.474
	c4.279,0.234,8.598,0.973,12.878,0.935c5.758,0,7.509-2.063,7.78-7.781c0.195-6.653,0.467-13.267,0.351-19.919
	c-0.099-2.831-0.596-5.635-1.479-8.326c-0.913-1.875-0.298-4.137,1.439-5.291c1.922-1.245,3.923-2.362,5.991-3.346
	c3.346-1.712,6.73-3.346,10.154-4.941c2.567-1.206,3.463-0.544,3.385,2.257c-0.584,22.487-1.206,44.936-1.712,67.422
	c-0.069,4.326,0.126,8.653,0.584,12.956c0.323,1.952,0.981,3.834,1.944,5.563c0.937,2.007,3.258,2.955,5.33,2.179
	c0.973-0.194,2.996,0.39,3.113,0.973c0.331,1.328,0.106,2.733-0.623,3.891c-3.618,4.241-7.548,8.209-11.243,12.333
	c-1.906,2.101-3.424,0.817-4.902-0.35c-2.957-2.335-5.68-4.98-8.754-7.159c-2.262-1.45-3.614-3.966-3.579-6.652
	c0-8.87,0-17.741,0.39-26.572c0.233-5.758-1.09-7.548-6.809-7.781c-4.202,0-8.442,0-12.645,0c-4.201,0-5.446,1.245-5.485,5.253
	c-0.233,13.811-0.389,27.661-0.35,41.473c0,10.349,0.233,20.697,0.506,31.123c-0.253,8.096,1.54,16.125,5.213,23.344
	c1.698,3.146,1.44,6.988-0.661,9.882c-4.592,6.946-7.716,14.757-9.182,22.953C532.725,794.555,531.752,795.449,531.052,796.539z
	 M494.87,662.706c-0.934,1.712-1.906,2.724-1.868,3.696c0.039,0.973,1.206,1.517,1.906,2.256c0.858-0.878,1.567-1.89,2.102-2.995
	C497.204,665.118,495.998,664.224,494.87,662.706L494.87,662.706z"/>
<path fill="#FFFFFF" d="M453.32,548.054c1.945,2.334,3.502,4.162,4.941,6.03c1.439,1.867-0.312,2.646-1.401,3.501
	c-4.94,3.891-9.92,8.093-14.861,12.139c-0.403,0.333-0.78,0.697-1.128,1.089c-5.642,6.303-4.241,5.136-9.493,0
	c-0.622-0.583-1.128-1.245-1.751-1.828c-3.89-3.891-4.94-3.891-7.78,1.012c-4.124,6.574-8.209,13.188-12.489,19.452
	c-0.803,0.864-1.99,1.26-3.151,1.05c-5.122-2.148-10.122-4.577-14.978-7.274c-3.891-2.179-3.891-2.451-6.692,0.816
	c-2.801,3.269-3.891,3.502-6.38,0c-3.891-4.979-3.891-5.135,0-9.921c2.763-3.48,4.147-7.856,3.891-12.294
	c0-14.044,0-28.089,0.506-42.134c0.101-5.668,1.031-11.291,2.762-16.689c2.492-6.842,8.981-11.406,16.263-11.438
	c4.502,0.24,8.984,0.76,13.422,1.556c3.891,0.623,4.357,0.429,4.436-3.618c0.233-11.943,0.544-23.849,0.661-35.792
	c0.078-1.517-0.454-3.002-1.479-4.124c-0.661-0.506-2.646,0.467-3.891,0.934c-2.646,0.934-5.291,2.023-8.481,3.269
	c0.39-3.891,0.467-6.848,1.051-9.688c0.439-1.217,1.313-2.228,2.451-2.84c7.781-4.63,15.562-9.065,23.343-13.695
	c1.867-1.128,3.424-2.762,5.291-3.891c0.817-0.544,2.451-1.05,2.918-0.661c1.031,0.844,1.688,2.06,1.828,3.385
	c0,10.349-0.467,20.659-0.7,31.124c-0.233,10.466-0.467,21.087-0.506,31.63c0,16.573,0,33.146,0,49.721
	c-0.039,3.054,0.38,6.097,1.245,9.025c1.634,5.019,4.669,5.563,8.442,1.945C452.209,549.277,452.781,548.68,453.32,548.054z
	 M402.043,540.272L402.043,540.272c0,2.957,0,5.913,0,8.87c-0.163,2.955-0.163,5.916,0,8.87c0.236,2.505,0.894,4.951,1.945,7.236
	c0.871,2.335,3.471,3.521,5.806,2.65c0.543-0.203,1.042-0.508,1.47-0.899c4.243-3.738,7.107-8.794,8.131-14.355
	c0.934-11.672,1.167-23.577,1.439-35.404c0-4.668-7.197-8.986-11.438-7.041c-4.72,2.229-7.592,7.124-7.236,12.332
	C401.887,528.445,402.043,534.358,402.043,540.272z"/>
<path fill="#FFFFFF" d="M694.764,341.274c0,1.323,0,2.646,0.194,3.89c0,23.862,0,47.736,0,71.624c0,5.681,1.206,6.381,6.419,3.891
	s10.972-5.291,16.34-8.17c2.296-1.206,3.891-1.167,5.252,1.089c2.374,3.462,5.175,6.653,7.548,10.115
	c1.596,2.335,2.996,2.451,5.058,0.623c2.84-2.568,2.879-2.257,4.785,1.05c1.76,2.387,1.494,5.705-0.622,7.781
	c-1.522,2.01-2.439,4.412-2.646,6.925c-0.623,12.139-0.855,24.277-1.245,36.415c-0.351,10.349-0.312,20.698-1.167,31.124
	c-0.717,11.596-7.107,22.091-17.079,28.051c-2.628,1.753-5.355,3.352-8.17,4.785c-1.276,0.497-2.71,0.383-3.891-0.312
	c-1.497-0.845-2.024-2.744-1.18-4.24c0.094-0.165,0.202-0.321,0.323-0.467c8.481-11.011,10.66-23.771,10.854-37.232
	c0-15.289,0.623-30.618,0.896-45.907c0.244-3.692,0.062-7.399-0.545-11.049c-0.852-3.759-2.296-7.357-4.279-10.66
	c-1.829-2.996-4.436-3.151-7.354-1.206c-2.101,1.4-4.085,2.956-6.069,4.513c-2.223,1.7-3.437,4.407-3.229,7.197
	c0,8.326,0,16.651,0.35,24.978c0.105,1.564,0.366,3.115,0.778,4.629c0.263,1.916,2.028,3.257,3.944,2.994
	c0.179-0.024,0.356-0.063,0.529-0.115c2.49-0.389,3.346,0.739,3.502,3.151c0.35,5.291,0,5.097-4.513,7.781
	c-4.164,2.346-8.086,5.095-11.711,8.209c-2.022,1.712-3.151,2.451-5.446,0.312c-3.385-3.386-7.937-5.349-12.722-5.485
	c-0.817,0-2.296-0.973-2.296-1.518c0-1.906-0.194-5.097,0.739-5.563c7.781-3.891,6.614-11.127,6.652-17.624
	C675,434.334,675,405.856,675,377.261c-0.136-2.2-0.448-4.386-0.935-6.536c-0.389-2.451-1.944-2.762-3.89-1.945
	c-1.945,0.817-4.241,1.829-6.342,2.763c-2.102,0.934-3.035,0.817-2.763-1.829s0-6.147,0.545-9.143
	c0.32-1.557,1.359-2.871,2.801-3.541c8.802-2.017,16.878-6.418,23.343-12.722c1.95-1.468,4.02-2.77,6.187-3.891L694.764,341.274z"/>
<path fill="#FFFFFF" d="M586.686,458.455c-1.557-3.891-3.035-7.78-4.24-11.438c0-0.584,0.622-1.751,1.283-2.296
	c6.497-5.485,13.111-10.894,19.453-16.379c1.944-1.634,3.268-1.517,5.057,0.351c1.663,1.604,3.534,2.979,5.563,4.085
	c2.539,1.522,5.801,1.033,7.781-1.167c4.63-4.436,9.376-8.754,14.006-13.189c1.518-1.84,4.239-2.102,6.079-0.585
	c0.119,0.098,0.232,0.202,0.34,0.313c5.682,4.364,10.487,9.762,14.162,15.912c2.89,5.841,4.708,12.153,5.368,18.636
	c1.046,8.057,0.152,16.246-2.606,23.888c-2.685,8.948-6.497,17.313-15.562,21.709c-4.008,1.822-8.23,3.13-12.566,3.891
	c-4.225,0.438-7.434,4-7.431,8.248c0,5.252,0.272,10.543,0.506,15.795c0.341,3.265,2.239,6.164,5.096,7.781
	c1.667,0.848,2.33,2.885,1.483,4.551c-0.137,0.269-0.309,0.518-0.511,0.74c-3.89,6.38-3.89,6.38-10.621,3.696
	c-6.84-2.799-14.699-1.063-19.725,4.356c-5.21,3.909-7.52,10.593-5.836,16.885c0.467,1.79,0,3.074-1.517,3.502
	c-1.144,0.192-2.313-0.136-3.19-0.895c-3.248-3.511-4.859-8.231-4.436-12.995c0.334-6.594,4.14-12.518,9.999-15.562
	c0.545-0.312,1.012-0.778,1.518-1.128c3.813-2.316,5.974-6.605,5.563-11.049c-0.429-21.826-0.312-43.69-0.506-65.555
	c0.008-2.585-0.48-5.147-1.439-7.548c-0.896-2.063-2.918-2.568-4.98-0.896C592.716,453.787,589.953,455.771,586.686,458.455z
	 M622.828,467.287h0.778c0,5.797-0.233,11.671,0,17.352c0.311,6.886,4.474,7.08,9.064,4.591c4.533-2.651,7.591-7.245,8.287-12.45
	c2.625-12.018-2.454-24.407-12.761-31.124c-2.412-1.789-3.696-0.855-4.669,1.167c-0.513,1.232-0.765,2.557-0.739,3.891
	c-0.078,5.603-0.039,11.088-0.039,16.574H622.828z"/>
<path fill="#FFFFFF" d="M500.705,452.464c5.059,1.596,10.115,3.151,15.135,4.824c2.681,1.056,5.731,0.431,7.78-1.595
	c2.023-1.829,3.502-1.4,4.669,0.934c0.971,1.493,1.755,3.101,2.334,4.785c0.273,1.402-0.146,2.852-1.128,3.891
	c-3.979,2.958-6.036,7.847-5.369,12.761c0.351,9.376,0.233,18.791,0.351,28.167c0,4.318,0.816,8.131,5.524,9.999
	c2.49,0.973,1.79,3.462,1.051,5.252c-0.506,1.247-1.528,2.213-2.802,2.646c-12.742,2.14-24.414,8.447-33.186,17.936
	c-5.797,5.991-5.642,6.146-12.178,1.478c-4.746-3.385-7.236-3.112-11.865,1.245c-4.63,4.357-4.708,4.396-7.976-1.206
	c-3.269-5.603-3.347-5.603,1.245-9.882c4.193-3.742,6.335-9.271,5.758-14.861c-0.545-10.543-0.623-21.087-0.623-31.63
	c0-8.637,0.817-17.157,6.458-24.237c1.521-1.839,3.401-3.348,5.524-4.436c5.695-3.484,12.273-5.253,18.947-5.097L500.705,452.464z
	 M503.974,494.131L503.974,494.131c0-4.318,0-8.676,0-12.994c0.246-4.229-2.936-7.877-7.158-8.209c-3.502,0-6.108,3.385-6.264,8.17
	c0,5.914,0,11.672,0,17.702c0,6.847,0,13.733,0,20.581c0,4.862,4.513,7.78,8.131,5.835c3.253-1.49,5.369-4.709,5.446-8.286
	c-0.155-7.626-0.116-15.212-0.116-22.838L503.974,494.131z"/>
<path fill="#FFFFFF" d="M570.462,370.997c0,2.685,0,5.408,0,8.092c0,14.55,0.104,29.101,0.312,43.651
	c0,20.62,0.312,41.278,0.583,61.898c0,8.209,3.035,10.776,11.166,10.582c2.101,0,5.097,3.034,5.408,5.836
	c0.311,2.801-1.751,3.423-3.657,3.89c-11.301,2.909-22.114,7.458-32.097,13.5c-1.245,0.739-2.529,1.518-3.891,2.335
	c-2.606,1.712-3.385,1.479-4.591-1.439c0.015-0.194,0.015-0.39,0-0.584c-3.247-4.219-2.794-10.206,1.051-13.889
	c2.934-4.096,4.313-9.103,3.891-14.123c0-23.343,0-46.686-0.312-70.028c0-5.058-0.272-10.115-0.661-15.173
	c-0.39-5.058-2.724-5.875-6.692-3.618c-3.968,2.256-4.513,2.295-6.225-2.529c-2.101-5.913-1.828-6.652,3.618-9.843
	c8.054-4.668,16.146-9.298,24.16-14.083c2.529-1.517,4.824-3.423,7.197-5.135L570.462,370.997z"/>
<path fill="#FFFFFF" d="M788.991,414.182c4.552-3.891,8.792-7.781,13.188-11.671c0.506-0.428,2.218,0,2.84,0.505
	c1.33,1.345,2.541,2.803,3.618,4.357c1.245,1.634,2.567,2.14,4.163,0.428c0.157-0.144,0.326-0.273,0.506-0.389
	c5.991-4.668,5.991-4.668,10.932,1.867c-1.479,1.245-2.956,2.529-4.474,3.891c-3.282,2.756-5.095,6.884-4.902,11.166
	c0,8.559-0.467,17.118,0,25.638c0.685,2.896,2.09,5.573,4.085,7.781c0.39,0.545,2.529,0.312,3.618,0
	c1.518-0.802,2.951-1.754,4.28-2.84c1.152,1.59,2.105,3.314,2.84,5.136c0.113,1.277-0.41,2.529-1.4,3.346
	c-6.342,4.474-12.878,8.715-19.453,13.149c-0.884,0.848-2.287,0.817-3.135-0.066c-0.127-0.133-0.237-0.28-0.327-0.439
	c-1.284-1.517-2.451-3.151-3.891-4.668c-1.517-2.722-4.952-3.699-7.674-2.183c-0.39,0.217-0.752,0.479-1.08,0.782
	c-3.891,2.373-7.509,5.019-11.243,7.547l-2.84,1.984c-1.195,1.112-3.066,1.045-4.18-0.15c-0.092-0.1-0.178-0.205-0.256-0.316
	c-3.034-3.19-6.225-6.264-9.376-9.337c-3.151-3.074-4.124-2.879-7.431-0.662c-1.4,0.935-2.529,2.257-3.891,3.074
	c-1.246,0.526-2.553,0.893-3.891,1.089c-0.659-1.96-1.129-3.979-1.4-6.03c0-0.816,1.556-1.634,2.101-2.606
	c1.804-2.408,3.125-5.144,3.891-8.054c0.895-9.415,1.128-18.907,1.361-28.361c0-3.229-1.128-3.891-4.279-2.801
	c-0.579,0.204-1.211,0.204-1.79,0c-2.198-2.063-2.387-5.49-0.428-7.781c2.608-1.93,5.115-3.995,7.509-6.186
	c2.149-2.271,4.09-4.732,5.797-7.353c1.751-2.567,2.646-2.84,4.863-0.817c0.203,0.249,0.424,0.483,0.661,0.7
	c6.249,3.916,9.424,11.288,7.976,18.519c-0.545,9.264-0.545,18.553,0,27.816c0.081,5.049,4.239,9.076,9.288,8.995
	c0.264-0.004,0.526-0.02,0.788-0.047c4.095-1.002,7.173-4.388,7.781-8.559c0.252-2.3,0.329-4.614,0.233-6.925
	c0-5.291-0.194-10.544-0.467-15.835C794.031,422.875,792.388,417.889,788.991,414.182z"/>
<path fill="#FFFFFF" d="M419.395,379.362c-6.342-6.147-7.12-13.772-8.365-21.203c-2.45-15.018-1.517-30.113-1.283-45.169
	c0-9.687,0.428-19.452,0.583-29.101c0.233-14.201,0.39-28.439,0.662-42.795c0.237-1.572-0.845-3.039-2.417-3.277
	c-0.179-0.027-0.359-0.037-0.54-0.03c-7.563-0.511-15.146-0.641-22.721-0.389c-6.048,0.735-11.111,4.931-12.955,10.738h-0.895
	c-0.633-1.368-1.053-2.824-1.245-4.319c-0.082-6.81,3.66-13.091,9.688-16.262c6.586-3.884,14.285-5.445,21.864-4.435
	c16.889,2.415,33.948,3.429,51.004,3.035c6.225,0,12.45,0,18.675,0c4.357,0,5.135-1.245,4.163-5.563
	c-0.001-0.947,0.483-1.828,1.283-2.334c1.09-0.428,2.918-0.739,3.541,0c2.97,2.807,5.764,5.796,8.364,8.948
	c0.428,0.506,0,2.218-0.545,2.918c-1.706,2.262-3.606,4.371-5.68,6.303c-1.076,0.978-2.442,1.579-3.891,1.711
	c-10.972,0-21.903,0-32.875,0c-4.94,0-9.921,0.233-14.861,0.312c-4.941,0.078-5.797,0.973-6.069,5.408
	c-0.506,7.353-0.817,14.745-0.934,22.137c-0.194,14.239-0.389,28.479-0.272,42.795c0,11.399,0.545,22.798,1.206,34.159
	c0.288,3.243,1.199,6.4,2.685,9.298c1.558,2.874,1.408,6.373-0.389,9.104c-3.122,4.697-5.217,10-6.147,15.562
	C420.607,377.803,420.057,378.629,419.395,379.362z"/>
<path fill="#FFFFFF" d="M436.396,271.362c0-0.973,0-1.167-0.194-1.401c-1.217-5.1,1.932-10.22,7.031-11.436
	c0.502-0.12,1.013-0.199,1.528-0.235c3.89-0.895,7.158-4.552,10.737-6.925c1.595-1.051,3.268-1.984,5.524-3.346
	c0,1.945,0.233,3.035,0.233,4.163c0,17.196,0,34.405,0,51.627c0,4.863,0.856,5.33,5.136,3.19s7.78-3.891,11.671-5.797
	c1.149-0.867,2.784-0.638,3.651,0.512c0.091,0.121,0.171,0.249,0.239,0.383c1.79,2.606,3.891,5.019,5.681,7.547
	c0.973,1.323,1.789,1.401,3.151,0.467c0.982-0.477,2.032-0.805,3.112-0.972c0.428,1.828,1.867,4.513,1.167,5.369
	c-2.486,3.576-3.617,7.92-3.19,12.255c-0.35,13.733-0.778,27.428-1.128,41.162c-0.351,13.733-7.781,21.553-19.024,27.039
	c-0.897,0.316-1.894,0.155-2.646-0.428c-0.584-0.856-1.012-2.568-0.506-3.229c6.73-9.026,7.976-19.453,7.781-30.268
	c0-12.022,0.271-24.043,0.428-36.104c0.203-3.719-0.867-7.397-3.035-10.426c-1-1.902-3.353-2.632-5.254-1.632
	c-0.265,0.139-0.512,0.308-0.737,0.503c-4.652,2.048-7.36,6.955-6.613,11.983c0.272,4.742,0.272,9.497,0,14.239
	c0,4.435,0.583,4.979,4.94,6.108c0.703,0.308,1.202,0.953,1.323,1.712c-0.233,1.829-0.195,4.318-1.362,5.291
	c-3.571,2.839-7.327,5.438-11.243,7.781c-0.817,0.422-1.789,0.422-2.606,0c-2.637-2.463-6.017-3.982-9.609-4.318
	c-0.701,0-1.945-1.011-1.906-1.478c0-1.439,0.194-3.58,1.128-4.163c2.968-1.901,4.585-5.333,4.163-8.832
	c0-22.176,0-44.313,0.271-66.488c0.02-0.311,0.02-0.623,0-0.934c-0.583-5.058-0.389-7.003-6.302-4.163
	C438.781,270.6,437.599,271.016,436.396,271.362z"/>
<path fill="#FFFFFF" d="M883.413,431.688c3.891,0.39,7.548,0.584,11.282,1.206c10.373,1.534,17.538,11.187,16.004,21.559
	c-0.106,0.72-0.254,1.433-0.441,2.135c-2.918,12.683-11.438,20.464-25.483,22.526c-12.238,2.048-24.795-0.742-35.015-7.781
	c-3.052-2.383-5.842-5.082-8.325-8.054c-0.467-0.506-0.272-1.828,0-2.685c0.272-0.855,0.895-1.128,1.439-1.634
	c5.485-5.291,5.291-5.058,11.088-0.272s18.752,8.599,25.755,4.902c6.146-2.625,8.998-9.735,6.373-15.88
	c-0.744-1.743-1.888-3.286-3.338-4.506c-1.627-0.984-3.601-1.212-5.408-0.623c-6.6,2.261-13.658,2.85-20.542,1.712
	c-10.625-2.276-17.421-12.703-15.212-23.343c2.607-10.427,10.154-15.562,19.764-18.169c9.924-2.826,20.543-1.869,29.802,2.685
	l1.4,0.739c4.357,2.49,4.436,3.346,0.895,6.847c-1.865,1.703-3.607,3.536-5.213,5.486c-1.4,1.867-2.373,1.439-3.891,0.194
	c-2.891-2.821-6.739-4.446-10.776-4.552c-4.606-0.138-8.652,3.04-9.609,7.548c-0.45,4.313,2.531,8.231,6.808,8.948
	c4.1,0.887,8.242,1.562,12.411,2.022L883.413,431.688z"/>
<path fill="#FFFFFF" d="M771.912,536.227c0.189,1.496,0.28,3.004,0.271,4.513c-2.09,21.539-2.973,43.178-2.646,64.815
	c0.506,24.782,0.233,49.604,0.351,74.425c-0.067,1.588,0.024,3.178,0.272,4.747c0.301,2.279,2.392,3.883,4.671,3.582
	c0.533-0.07,1.048-0.243,1.515-0.509c1.712-0.895,2.996-1.206,4.279,0.661c1.284,1.867,2.335,3.891,0.351,5.642
	c-3.891,3.891-8.209,7.78-12.527,11.398c-1.181,0.403-2.483,0.215-3.502-0.505c-3.346-2.685-6.302-5.875-9.687-8.481
	c-1.796-1.324-2.758-3.5-2.529-5.72c0-17.079,0.351-34.158,0.506-51.237c0-9.376,0.506-18.791,0.389-28.167
	c0-14.006-0.661-28.012-1.05-42.018c0.143-3.332-1.301-6.535-3.891-8.637c-2.296-1.828-1.361-3.891,0.506-5.252
	c5.524-4.514,11.088-8.987,16.573-13.539C767.71,540.312,769.538,538.561,771.912,536.227z"/>
<path fill="#FFFFFF" d="M628.392,627.264c0.825,0.494,1.617,1.04,2.373,1.634c5.681,5.136,11.282,10.349,17.001,15.563
	c1.384,1.086,1.916,2.935,1.323,4.591c-0.726,4.109-1.09,8.275-1.089,12.449c0,5.68,0,11.399,0.311,17.04
	c0.217,1.92,1.018,3.727,2.296,5.175c2.528,2.879,2.062,6.069-1.634,6.886c-8.038,1.661-15.609,5.075-22.176,9.999
	c-1.674,1.283-3.19,2.723-4.786,3.891c-1.06,1.354-3.016,1.592-4.369,0.532c-0.198-0.155-0.377-0.334-0.532-0.532
	c-3.675-3.638-7.572-7.042-11.672-10.193c-5.369-3.891-5.291-9.415-5.058-15.29c0.351-7.78,0-15.756,0-23.653
	c-0.125-1.68-0.703-3.293-1.673-4.669c-1.557-2.334-0.428-3.891,1.4-4.552c9.54-4.398,18.313-10.296,25.988-17.469
	C626.808,628.114,627.577,627.645,628.392,627.264z M631.504,670.059L631.504,670.059c0-5.058,0-10.115,0-15.173
	c-0.301-3.584-3.113-6.445-6.691-6.808c-3.492,0.268-6.283,3.011-6.614,6.497c-0.069,1.049-0.069,2.102,0,3.151
	c0,1.789,0,3.579,0,5.368c0,7.159,0,14.278,0,21.437c0,3.718,3.014,6.731,6.73,6.731c3.718,0,6.73-3.014,6.73-6.731
	c0-0.816,0-1.673,0-2.528c-0.077-3.917-0.116-7.885-0.116-11.905L631.504,670.059z"/>
<path fill="#FFFFFF" d="M683.325,591.043c-0.194,3.541-0.428,6.42-0.545,9.26c-0.35,8.131-0.739,16.224-1.012,24.354
	c0,3.891,0.896,4.63,4.902,4.746c1.515,0.005,3.007,0.364,4.357,1.051c-0.057,2.778-0.408,5.544-1.051,8.248
	c0,0.389-1.673,0.583-2.567,0.622c-4.513,0-6.108,1.322-6.108,5.68c0,11.672,0,22.993,0.233,34.471c0,1.167,0,2.334,0,3.462
	c0,4.241,0.895,5.097,5.214,5.33c1.652-0.068,3.048,1.217,3.116,2.87c0.026,0.639-0.152,1.269-0.51,1.799
	c-0.588,0.86-1.267,1.656-2.023,2.373c-1.295,1.211-2.504,2.511-3.618,3.891c-3.462,5.019-3.385,5.019-8.247,1.517
	c-2.029-1.45-4.162-2.75-6.381-3.89c-2.98-1.278-4.856-4.27-4.707-7.509c0-14.045,0-28.051,0-42.096
	c0-7.119-0.935-8.247-8.365-8.403c-0.947-0.156-1.768-0.746-2.218-1.595c-1.284-2.909,0.032-6.309,2.941-7.594
	c0.158-0.069,0.319-0.132,0.482-0.188c7.781-2.879,6.458-2.996,6.497-10.076c0-3.696-0.311-7.392,0-11.049
	c0.143-1.692,0.904-3.271,2.14-4.436c4.63-3.891,9.493-7.275,14.278-10.854C681.161,592.308,682.226,591.646,683.325,591.043z"/>
<path fill="#FFFFFF" d="M726.743,627.458c3.891,6.536,7.197,12.878,10.894,19.063c1.883,2.909,3.922,5.715,6.107,8.403
	c2.451,3.229,2.102,4.941-1.517,6.926c-7.081,3.89-14.162,7.78-21.165,11.904c-1.342,0.629-2.427,1.7-3.073,3.035
	c-0.544,1.983-1.128,5.019,0,6.107c2.284,1.994,4.924,3.539,7.781,4.552c2.771,1.523,6.228,0.927,8.325-1.439
	c1.518-1.595,3.113-1.011,4.475,0.778c1.361,1.79,2.762,3.112,0.622,5.058c-4.862,4.475-9.648,8.987-14.706,13.267
	c-1.228,0.6-2.662,0.6-3.891,0c-5.446-2.957-10.621-6.342-16.106-9.221c-2.472-0.881-4.06-3.294-3.891-5.913
	c0.13-13.824,0.13-27.648,0-41.473c-0.139-2.019,0.869-3.943,2.606-4.979C711.181,638.079,718.69,632.788,726.743,627.458z
	 M715.616,656.948h-0.351c0.391,1.715,0.925,3.394,1.596,5.019c0.35,0.739,1.867,1.634,2.412,1.4
	c2.492-0.989,4.846-2.297,7.003-3.891c0.583-0.467,0.312-2.723-0.233-3.891c-1.134-2.451-2.529-4.773-4.163-6.925
	c-0.84-1.122-2.14-1.808-3.54-1.867c-0.973,0-2.063,1.945-2.296,3.19c-0.341,2.306-0.51,4.633-0.506,6.964H715.616z"/>
<path fill="#FFFFFF" d="M513.272,604.933c-6.652-1.051-12.449-1.945-18.246-2.918c-4.85-1.13-9.924-0.805-14.589,0.934l-1.401,0.7
	c-3.891,2.218-5.524,5.758-4.123,8.792c2.107,3.069,6.138,4.143,9.492,2.529c1.167-0.428,2.334-0.973,3.463-1.479
	c2.801-1.206,4.435-0.351,5.097,2.606c1.128,4.98,0.467,6.536-4.514,7.197c-4.728,0.812-9.543,0.981-14.316,0.506
	c-6.605-1.494-11.081-7.65-10.466-14.395c0.817-13.111,8.948-19.881,20.152-24.354c9.671-3.43,20.122-4.011,30.113-1.673
	c5.368,0.973,10.776,1.867,16.223,2.49c2.303,0.187,4.62,0.056,6.887-0.39c1.984-0.311,2.918,0,3.112,2.257
	c0.601,2.978-0.844,5.994-3.54,7.392c-3.366,2.157-6.861,4.106-10.466,5.836C521.927,602.505,517.629,603.829,513.272,604.933z"/>
<path fill="#FFFFFF" d="M525.255,300.813l13.461,20.503c1.4,2.14,0,3.19-1.634,4.163c-5.058,2.801-10.193,5.485-15.018,8.637
	c-1.747,1.181-2.941,3.02-3.307,5.097c0,1.245,2.217,3.034,3.891,3.891c2.762,1.517,5.719,2.723,8.676,0
	c1.361-1.323,2.684,0,3.229,1.167s0.623,2.685,0,3.229c-3.424,3.385-7.003,6.614-10.699,9.688c-0.871,0.425-1.89,0.425-2.762,0
	c-3.891-2.179-7.781-4.591-11.672-6.731c-1.688-0.687-2.74-2.384-2.606-4.202c0-10.038,0-20.036,0-30.073
	c-0.078-1.118,0.285-2.221,1.012-3.074C513.7,308.671,519.614,304.703,525.255,300.813z M517.474,321.666h-0.428
	c0.583,1.556,0.739,3.891,1.828,4.435c1.09,0.545,3.034-0.35,4.513-0.934c2.646-0.973,2.879-2.646,1.206-4.902
	c-1.05-1.4-1.712-3.112-2.801-4.513c-0.555-0.705-1.398-1.12-2.295-1.128c-0.83,0.332-1.452,1.04-1.673,1.906
	c-0.181,1.667-0.246,3.343-0.195,5.019L517.474,321.666z"/>
</svg>
